<svg viewBox="0 0 200 200" xmlns="http://www.w3.org/2000/svg" fill="none" stroke="black" stroke-width="8" stroke-linecap="round" stroke-linejoin="round">
  <!-- Rough Circle Background -->
  <path d="M100 10 
           C 160 10, 190 40, 190 100 
           C 190 160, 160 190, 100 190 
           C 40 190, 10 160, 10 100 
           C 10 40, 40 10, 100 10 Z" fill="white"/>

  <!-- Duck Body/Neck -->
  <path d="M 60 200 
           L 60 140 
           C 60 100, 70 80, 100 80 
           C 130 80, 140 100, 140 140 
           L 140 200" stroke-width="8"/>
           
  <!-- Head Top -->
  <path d="M 70 80 
           C 70 40, 130 40, 130 80" stroke-width="8"/>

  <!-- Beak -->
  <path d="M 70 95 
           L 40 95 
           C 30 95, 30 115, 40 115 
           L 70 105" fill="white" stroke-width="8"/>
  
  <!-- Eyes -->
  <ellipse cx="90" cy="70" rx="12" ry="10" fill="white" stroke-width="6"/>
  <circle cx="94" cy="70" r="3" fill="black" stroke="none"/>
  
  <ellipse cx="120" cy="70" rx="12" ry="10" fill="white" stroke-width="6"/>
  <circle cx="124" cy="70" r="3" fill="black" stroke="none"/>
</svg>
